<?xml version="1.0" encoding="iso-8859-1"?>
<!-- Generator: Adobe Illustrator 19.0.0, SVG Export Plug-In . SVG Version: 6.00 Build 0)  -->
<svg version="1.1" id="Capa_1" xmlns="http://www.w3.org/2000/svg" xmlns:xlink="http://www.w3.org/1999/xlink" x="0px" y="0px"
	 viewBox="0 0 512 512" style="enable-background:new 0 0 512 512;" xml:space="preserve">
<circle style="fill:#88888F;" cx="256" cy="256" r="256"/>
<path style="fill:#9D9D9E;" d="M486.429,144.356c-30.777-63.405-86.95-112.191-155.298-133.143h-16.602
	c-7.358,0-13.323,5.965-13.323,13.323s5.965,13.323,13.323,13.323h27.702c7.358,0,13.323,5.965,13.323,13.323
	s-5.965,13.323-13.323,13.323H312.08h-35.202c-7.358,0-13.323,5.965-13.323,13.323c0,7.358,5.965,13.323,13.323,13.323h35.202
	h41.626c7.358,0,13.323,5.965,13.323,13.323c0,7.358-5.965,13.323-13.323,13.323h-20.611c-7.358,0-13.323,5.965-13.323,13.323
	s5.965,13.323,13.323,13.323h151.854C485.45,144.443,485.943,144.41,486.429,144.356z"/>
<path style="fill:#D89E68;" d="M407.064,462.661H104.936C147.281,493.671,199.493,512,256,512S364.719,493.671,407.064,462.661z"/>
<path style="fill:#C68A59;" d="M163.366,485.081L163.366,485.081c0-9.807,5.631-18.294,13.833-22.419h-72.264
	c18.515,13.559,38.917,24.693,60.739,32.931C164.197,492.394,163.366,488.836,163.366,485.081z"/>
<path style="fill:#D8CCBC;" d="M353.633,201.828c-7.144,9.634-14.936,18.757-23.333,27.286c-1.403,1.426-3.332,2.214-5.332,2.214
	H275.5v206.5h160.691c9.678-9.591,18.587-19.952,26.642-30.979V201.828H353.633z"/>
<path style="fill:#C6B6A5;" d="M436.25,437.768l-134.527-206.44H275.5v206.5h160.691C436.211,437.808,436.23,437.788,436.25,437.768
	z"/>
<path style="fill:#BFA993;" d="M411.444,390.769c-11.28,0-20.423,9.143-20.423,20.423v31.969h39.615
	c0.41-0.383,0.824-0.761,1.231-1.146v-30.823C431.867,399.912,422.724,390.769,411.444,390.769z"/>
<path style="fill:#AA927D;" d="M431.867,431.043l-16.871-25.889c-1.111-1.705-1.064-3.91,0.097-5.581
	c1.713-2.466,3.953-4.537,6.562-6.048c-3.006-1.741-6.487-2.754-10.212-2.754c-1.853,0-3.639,0.269-5.345,0.731l0,0l0,0
	c-0.535,0.145-1.061,0.312-1.578,0.498c-0.016,0.006-0.032,0.012-0.048,0.018c-2.537,0.923-4.834,2.329-6.788,4.115
	c-0.085,0.078-0.172,0.153-0.256,0.233c-0.308,0.292-0.605,0.593-0.895,0.903c-0.122,0.131-0.242,0.263-0.361,0.397
	c-0.26,0.293-0.515,0.59-0.758,0.898c-0.134,0.17-0.26,0.346-0.389,0.52c-0.219,0.296-0.44,0.59-0.643,0.898
	c-0.169,0.256-0.318,0.525-0.478,0.787c-0.254,0.416-0.484,0.845-0.703,1.28c-0.167,0.332-0.335,0.663-0.484,1.005
	c-0.103,0.237-0.192,0.482-0.287,0.724c-0.133,0.339-0.261,0.68-0.376,1.028c-0.08,0.244-0.153,0.491-0.224,0.739
	c-0.112,0.391-0.212,0.787-0.302,1.184c-0.048,0.214-0.096,0.428-0.137,0.644c-0.079,0.416-0.139,0.837-0.193,1.262
	c-0.026,0.208-0.06,0.413-0.08,0.624c-0.06,0.638-0.098,1.282-0.098,1.935v26.636v5.333h20.423v-5.333h20.423L431.867,431.043
	L431.867,431.043z"/>
<path style="fill:#BFA993;" d="M411.444,303.436c-11.28,0-20.423,9.143-20.423,20.423v31.969h40.846v-31.969
	C431.867,312.579,422.724,303.436,411.444,303.436z"/>
<g>
	<path style="fill:#AA927D;" d="M421.656,306.19c-3.006-1.741-6.487-2.754-10.212-2.754c-11.28,0-20.423,9.143-20.423,20.423v31.969
		h20.423v-31.969C411.444,316.303,415.557,309.723,421.656,306.19z"/>
	<path style="fill:#AA927D;" d="M338.115,303.436c-11.28,0-20.423,9.143-20.423,20.423v31.969h40.846v-31.969
		C358.538,312.579,349.395,303.436,338.115,303.436z"/>
</g>
<path style="fill:#BFA993;" d="M470.833,271.328c0-4.142-3.357-7.5-7.5-7.5H290.167c-4.143,0-7.5,3.358-7.5,7.5s3.357,7.5,7.5,7.5
	h173.167C467.476,278.828,470.833,275.47,470.833,271.328z"/>
<path style="fill:#AA927D;" d="M324.5,271.328c0-4.142,3.357-7.5,7.5-7.5h-41.833c-4.142,0-7.5,3.358-7.5,7.5s3.358,7.5,7.5,7.5H332
	C327.858,278.828,324.5,275.47,324.5,271.328z"/>
<path style="fill:#BFA993;" d="M470.833,355.828c0-4.142-3.357-7.5-7.5-7.5H290.167c-4.143,0-7.5,3.358-7.5,7.5s3.357,7.5,7.5,7.5
	h173.167C467.476,363.328,470.833,359.97,470.833,355.828z"/>
<path style="fill:#AA927D;" d="M380.333,355.828c0-4.142,3.357-7.5,7.5-7.5h-97.667c-4.142,0-7.5,3.358-7.5,7.5s3.358,7.5,7.5,7.5
	h97.667C383.691,363.328,380.333,359.97,380.333,355.828z"/>
<path style="fill:#EBE4DD;" d="M193.167,104.828H49.402c-0.079,0.107-0.157,0.215-0.235,0.322v301.7
	c8.056,11.026,16.965,21.388,26.642,30.978h334.358L193.167,104.828z"/>
<g>
	<path style="fill:#D8CCBC;" d="M80.704,104.828H49.402c-0.079,0.107-0.157,0.215-0.235,0.322v301.7
		c8.056,11.026,16.965,21.387,26.642,30.978h4.895C80.704,437.828,80.704,104.828,80.704,104.828z"/>
	<path style="fill:#D8CCBC;" d="M242.692,188.328H49.167c-4.143,0-7.5-3.358-7.5-7.5s3.357-7.5,7.5-7.5h193.525
		c4.143,0,7.5,3.358,7.5,7.5S246.835,188.328,242.692,188.328z"/>
	<path style="fill:#D8CCBC;" d="M181.93,139.5c0-4.142-3.357-7.5-7.5-7.5h-73.526c-4.143,0-7.5,3.358-7.5,7.5s3.357,7.5,7.5,7.5
		h73.526C178.572,147,181.93,143.642,181.93,139.5z"/>
</g>
<path style="fill:#BFA993;" d="M465.285,201.828H353.643v-21.952c0-2.776,2.272-5.048,5.048-5.048h106.594
	c2.777,0,5.048,2.272,5.048,5.048v16.903C470.333,199.556,468.062,201.828,465.285,201.828z"/>
<path style="fill:#AA927D;" d="M385.691,174.828h-27c-2.776,0-5.048,2.272-5.048,5.048v21.952h27v-21.952
	C380.643,177.1,382.914,174.828,385.691,174.828z"/>
<path style="fill:#D8CCBC;" d="M192.618,77.828h-38H86.024h-38c-2.777,0-5.048,2.272-5.048,5.048V99.78
	c0,2.777,2.272,5.048,5.048,5.048h38h68.594h38c2.777,0,5.048-2.272,5.048-5.048V82.876C197.667,80.1,195.395,77.828,192.618,77.828
	z"/>
<path style="fill:#BFA993;" d="M101.127,218.936c-11.28,0-20.423,9.143-20.423,20.423v31.969h40.846v-31.969
	C121.55,228.079,112.407,218.936,101.127,218.936z"/>
<path style="fill:#AA927D;" d="M111.339,221.69c-3.006-1.742-6.487-2.755-10.212-2.755c-11.28,0-20.423,9.143-20.423,20.423v31.969
	h20.423v-31.969C101.127,231.803,105.24,225.223,111.339,221.69z"/>
<path style="fill:#BFA993;" d="M174.456,218.936c-11.28,0-20.423,9.143-20.423,20.423v31.969h40.846v-31.969
	C194.879,228.079,185.736,218.936,174.456,218.936z"/>
<path style="fill:#AA927D;" d="M184.668,221.69c-3.006-1.742-6.487-2.755-10.212-2.755c-11.28,0-20.423,9.143-20.423,20.423v31.969
	h20.423v-31.969C174.456,231.803,178.569,225.223,184.668,221.69z"/>
<path style="fill:#BFA993;" d="M101.127,303.436c-11.28,0-20.423,9.143-20.423,20.423v31.969h40.846v-31.969
	C121.55,312.579,112.407,303.436,101.127,303.436z"/>
<path style="fill:#AA927D;" d="M111.339,306.19c-3.006-1.741-6.487-2.754-10.212-2.754c-11.28,0-20.423,9.143-20.423,20.423v31.969
	h20.423v-31.969C101.127,316.303,105.24,309.723,111.339,306.19z"/>
<path style="fill:#BFA993;" d="M174.456,303.436c-11.28,0-20.423,9.143-20.423,20.423v31.969h40.846v-31.969
	C194.879,312.579,185.736,303.436,174.456,303.436z"/>
<path style="fill:#AA927D;" d="M184.668,306.19c-3.006-1.741-6.487-2.754-10.212-2.754c-11.28,0-20.423,9.143-20.423,20.423v31.969
	h20.423v-31.969C174.456,316.303,178.569,309.723,184.668,306.19z"/>
<path style="fill:#BFA993;" d="M247.786,303.436c-11.28,0-20.423,9.143-20.423,20.423v31.969h40.846v-31.969
	C268.209,312.579,259.065,303.436,247.786,303.436z"/>
<path style="fill:#AA927D;" d="M257.997,306.19c-3.006-1.741-6.487-2.754-10.212-2.754c-11.28,0-20.423,9.143-20.423,20.423v31.969
	h20.423v-31.969C247.786,316.303,251.899,309.723,257.997,306.19z"/>
<path style="fill:#BFA993;" d="M101.127,390.769c-11.28,0-20.423,9.143-20.423,20.423v31.97h40.846v-31.97
	C121.55,399.912,112.407,390.769,101.127,390.769z"/>
<path style="fill:#AA927D;" d="M111.339,393.523c-3.006-1.741-6.487-2.754-10.212-2.754c-11.28,0-20.423,9.143-20.423,20.423v31.969
	h20.423v-31.969C101.127,403.637,105.24,397.056,111.339,393.523z"/>
<path style="fill:#BFA993;" d="M174.456,390.769c-11.28,0-20.423,9.143-20.423,20.423v31.97h40.846v-31.97
	C194.879,399.912,185.736,390.769,174.456,390.769z"/>
<path style="fill:#AA927D;" d="M184.668,393.523c-3.006-1.741-6.487-2.754-10.212-2.754c-11.28,0-20.423,9.143-20.423,20.423v31.969
	h20.423v-31.969C174.456,403.637,178.569,397.056,184.668,393.523z"/>
<path style="fill:#BFA993;" d="M247.786,390.769c-11.28,0-20.423,9.143-20.423,20.423v31.97h40.846v-31.97
	C268.209,399.912,259.065,390.769,247.786,390.769z"/>
<path style="fill:#AA927D;" d="M257.997,393.523c-3.006-1.741-6.487-2.754-10.211-2.754c-11.28,0-20.423,9.143-20.423,20.423v31.969
	h20.423v-31.969C247.786,403.637,251.899,397.056,257.997,393.523z"/>
<path style="fill:#BFA993;" d="M321.115,390.769c-11.28,0-20.423,9.143-20.423,20.423v31.97h40.846v-31.97
	C341.538,399.912,332.395,390.769,321.115,390.769z"/>
<path style="fill:#AA927D;" d="M331.327,393.523c-3.006-1.741-6.487-2.754-10.212-2.754c-11.28,0-20.423,9.143-20.423,20.423v31.969
	h20.423v-31.969C321.115,403.637,325.228,397.056,331.327,393.523z"/>
<g>
	<path style="fill:#D8CCBC;" d="M356.732,363.328H49.167c-4.143,0-7.5-3.358-7.5-7.5s3.357-7.5,7.5-7.5h307.565
		c4.142,0,7.5,3.358,7.5,7.5S360.874,363.328,356.732,363.328z"/>
	<path style="fill:#D8CCBC;" d="M436.191,437.828h-9.024H124.809h-49c9.93,9.841,20.654,18.881,32.081,27h16.92h279.3
		C415.537,456.709,426.261,447.669,436.191,437.828z"/>
	<path style="fill:#D8CCBC;" d="M301.667,278.828h-252.5c-4.143,0-7.5-3.358-7.5-7.5s3.357-7.5,7.5-7.5h252.5
		c4.143,0,7.5,3.358,7.5,7.5S305.81,278.828,301.667,278.828z"/>
</g>
<g>
	<path style="fill:#C6B6A5;" d="M75.667,180.828c0-4.142,3.357-7.5,7.5-7.5h-34c-4.143,0-7.5,3.358-7.5,7.5s3.357,7.5,7.5,7.5h34
		C79.024,188.328,75.667,184.97,75.667,180.828z"/>
	<path style="fill:#C6B6A5;" d="M76.976,99.78V82.877c0-2.777,2.272-5.048,5.048-5.048h-34c-2.777,0-5.048,2.272-5.048,5.048V99.78
		c0,2.777,2.272,5.048,5.048,5.048h34C79.248,104.828,76.976,102.556,76.976,99.78z"/>
	<path style="fill:#C6B6A5;" d="M75.667,355.828c0-4.142,3.357-7.5,7.5-7.5h-34c-4.143,0-7.5,3.358-7.5,7.5s3.357,7.5,7.5,7.5h34
		C79.024,363.328,75.667,359.97,75.667,355.828z"/>
	<path style="fill:#C6B6A5;" d="M75.667,271.328c0-4.142,3.357-7.5,7.5-7.5h-34c-4.143,0-7.5,3.358-7.5,7.5s3.357,7.5,7.5,7.5h34
		C79.024,278.828,75.667,275.47,75.667,271.328z"/>
	<path style="fill:#C6B6A5;" d="M161.29,451.328L161.29,451.328c0-7.456,6.044-13.5,13.5-13.5h-49.98h-49
		c9.93,9.841,20.654,18.881,32.081,27h16.92h49.98C167.334,464.828,161.29,458.784,161.29,451.328z"/>
</g>
<g>
</g>
<g>
</g>
<g>
</g>
<g>
</g>
<g>
</g>
<g>
</g>
<g>
</g>
<g>
</g>
<g>
</g>
<g>
</g>
<g>
</g>
<g>
</g>
<g>
</g>
<g>
</g>
<g>
</g>
</svg>
