<svg id="bold" enable-background="new 0 0 32 32" height="512" viewBox="0 0 32 32" width="512" xmlns="http://www.w3.org/2000/svg"><path d="m26 32h-20c-3.314 0-6-2.686-6-6v-20c0-3.314 2.686-6 6-6h20c3.314 0 6 2.686 6 6v20c0 3.314-2.686 6-6 6z" fill="#fff9dd"/><path d="m22.327 8.117c-.1-.06-.207-.107-.327-.107h-8.067c.047.153.067.32.067.487v.847h5.567c-.147.307-.233.64-.233 1v11.306c0 .553-.447 1-1 1s-1-.447-1-1v-1.64c0-.367-.3-.667-.667-.667h-6v-2.7c-.107.013-.22.02-.333.02-.347 0-.68-.047-1-.14v2.82h-.667c-.367 0-.667.3-.667.667v1.973c0 1.1.9 2 2 2h8.333c.64 0 1.227-.26 1.647-.687.427-.42.687-1.007.687-1.647v-9.64h2.667c.367 0 .667-.3.667-.667v-1c-.001-1.052-.708-1.939-1.674-2.225z" fill="#ffd200"/><path d="m10.333 15.33c-1.286 0-2.333-1.047-2.333-2.333v-3.5c0-.827.673-1.5 1.5-1.5s1.5.673 1.5 1.5v3.333c0 .276-.224.5-.5.5s-.5-.224-.5-.5v-3.333c0-.276-.225-.5-.5-.5s-.5.224-.5.5v3.5c0 .735.598 1.333 1.333 1.333s1.333-.598 1.333-1.333v-4.5c0-.276.224-.5.5-.5s.5.224.5.5v4.5c.001 1.286-1.046 2.333-2.333 2.333z" fill="#ffe777"/></svg>