<svg id="bold" enable-background="new 0 0 32 32" height="512" viewBox="0 0 32 32" width="512" xmlns="http://www.w3.org/2000/svg"><path d="m26 32h-20c-3.314 0-6-2.686-6-6v-20c0-3.314 2.686-6 6-6h20c3.314 0 6 2.686 6 6v20c0 3.314-2.686 6-6 6z" fill="#ffe6e2"/><path d="m16.167 9.333h-.733c-.221-.766-.927-1.333-1.767-1.333s-1.547.567-1.767 1.333h-.733c-.273 0-.5.227-.5.5v1c0 .64.527 1.167 1.167 1.167h3.666c.64 0 1.167-.527 1.167-1.167v-1c0-.273-.227-.5-.5-.5z" fill="#fd907e"/><path d="m17.5 10h-.167v.833c0 1.013-.82 1.833-1.833 1.833h-3.667c-1.013 0-1.833-.82-1.833-1.833v-.833h-.167c-1.013 0-1.833.82-1.833 1.833v8.333c0 1.014.82 1.834 1.833 1.834h4.393c-.333-.713-.533-1.5-.553-2.333h-3.173c-.273 0-.5-.227-.5-.5s.227-.5.5-.5h3.227c.06-.407.16-.793.293-1.167h-3.52c-.273 0-.5-.227-.5-.5s.227-.5.5-.5h4c.26-.427.567-.82.927-1.167h-4.927c-.273 0-.5-.227-.5-.5s.227-.5.5-.5h6.293c.767-.4 1.627-.64 2.54-.66v-1.84c0-1.013-.82-1.833-1.833-1.833z" fill="#fc573b"/><path d="m19.5 15c-2.481 0-4.5 2.019-4.5 4.5s2.019 4.5 4.5 4.5 4.5-2.019 4.5-4.5-2.019-4.5-4.5-4.5zm2.168 3.606-2.333 2.667c-.121.139-.295.221-.479.227-.007 0-.015 0-.022 0-.176 0-.346-.07-.471-.195l-1.333-1.333c-.26-.26-.26-.682 0-.943s.682-.26.943 0l.829.829 1.864-2.131c.243-.276.663-.305.941-.063.276.244.304.664.061.942z" fill="#fd907e"/></svg>